<mxfile host="app.diagrams.net" modified="2022-08-25T07:31:03.869Z" agent="5.0 (Windows NT 10.0; Win64; x64) AppleWebKit/537.36 (KHTML, like Gecko) Chrome/104.0.0.0 Safari/537.36" etag="GHmC8SUBSnr7_A43bJ9R" version="20.2.4" type="github">
  <diagram id="llJ7z0Gji51JeSnajiMM" name="第 1 页">
    <mxGraphModel dx="1185" dy="588" grid="0" gridSize="10" guides="1" tooltips="1" connect="1" arrows="1" fold="1" page="1" pageScale="1" pageWidth="827" pageHeight="1169" math="0" shadow="0">
      <root>
        <mxCell id="0" />
        <mxCell id="1" parent="0" />
        <mxCell id="q62LZAC1qhZ32H_XYZBD-136" value="" style="rounded=0;whiteSpace=wrap;html=1;shadow=0;glass=0;sketch=0;fontSize=12;fontColor=#222138;strokeColor=#222138;strokeWidth=0;fillColor=#F4F9FC;" vertex="1" parent="1">
          <mxGeometry x="418" y="2205" width="742" height="447" as="geometry" />
        </mxCell>
        <mxCell id="q62LZAC1qhZ32H_XYZBD-12" value="" style="rounded=1;whiteSpace=wrap;html=1;shadow=0;fillColor=#EFF1F3;strokeWidth=0;dashed=1;" vertex="1" parent="1">
          <mxGeometry x="79" y="99" width="492" height="323" as="geometry" />
        </mxCell>
        <mxCell id="q62LZAC1qhZ32H_XYZBD-19" style="edgeStyle=orthogonalEdgeStyle;rounded=0;orthogonalLoop=1;jettySize=auto;html=1;exitX=1;exitY=0.5;exitDx=0;exitDy=0;fontColor=#FFFFFF;strokeWidth=2;strokeColor=#696773;dashed=1;" edge="1" parent="1" source="q62LZAC1qhZ32H_XYZBD-1" target="q62LZAC1qhZ32H_XYZBD-16">
          <mxGeometry relative="1" as="geometry" />
        </mxCell>
        <mxCell id="q62LZAC1qhZ32H_XYZBD-20" style="edgeStyle=orthogonalEdgeStyle;rounded=0;orthogonalLoop=1;jettySize=auto;html=1;exitX=1;exitY=0.75;exitDx=0;exitDy=0;entryX=0;entryY=0.5;entryDx=0;entryDy=0;fontColor=#FFFFFF;strokeColor=#696773;strokeWidth=2;dashed=1;" edge="1" parent="1" source="q62LZAC1qhZ32H_XYZBD-1" target="q62LZAC1qhZ32H_XYZBD-18">
          <mxGeometry relative="1" as="geometry" />
        </mxCell>
        <mxCell id="q62LZAC1qhZ32H_XYZBD-21" style="edgeStyle=orthogonalEdgeStyle;rounded=0;orthogonalLoop=1;jettySize=auto;html=1;exitX=1;exitY=0.25;exitDx=0;exitDy=0;entryX=0;entryY=0.5;entryDx=0;entryDy=0;fontColor=#FFFFFF;strokeColor=#696773;strokeWidth=2;dashed=1;" edge="1" parent="1" source="q62LZAC1qhZ32H_XYZBD-1" target="q62LZAC1qhZ32H_XYZBD-15">
          <mxGeometry relative="1" as="geometry" />
        </mxCell>
        <mxCell id="q62LZAC1qhZ32H_XYZBD-1" value="" style="rounded=1;whiteSpace=wrap;html=1;fillColor=#79D9CE;strokeColor=#79D9CE;shadow=1;" vertex="1" parent="1">
          <mxGeometry x="110" y="225" width="120" height="60" as="geometry" />
        </mxCell>
        <mxCell id="q62LZAC1qhZ32H_XYZBD-2" value="&lt;font color=&quot;#ffffff&quot;&gt;77AAC2&lt;/font&gt;" style="whiteSpace=wrap;html=1;rounded=1;fillColor=#77AAC2;shadow=1;strokeWidth=0;strokeColor=#77AAC2;" vertex="1" parent="1">
          <mxGeometry x="624" y="30" width="120" height="60" as="geometry" />
        </mxCell>
        <mxCell id="q62LZAC1qhZ32H_XYZBD-4" value="&lt;font color=&quot;#ffffff&quot;&gt;79D9CE&lt;/font&gt;" style="whiteSpace=wrap;html=1;rounded=1;fillColor=#79D9CE;strokeColor=#79D9CE;strokeWidth=0;shadow=1;" vertex="1" parent="1">
          <mxGeometry x="624" y="117" width="120" height="60" as="geometry" />
        </mxCell>
        <mxCell id="q62LZAC1qhZ32H_XYZBD-6" value="&lt;font color=&quot;#ffffff&quot;&gt;FCD765&lt;/font&gt;" style="whiteSpace=wrap;html=1;rounded=1;fillColor=#FCD765;strokeColor=#FCD765;shadow=1;" vertex="1" parent="1">
          <mxGeometry x="624" y="201" width="120" height="60" as="geometry" />
        </mxCell>
        <mxCell id="q62LZAC1qhZ32H_XYZBD-7" value="F19A97" style="whiteSpace=wrap;html=1;rounded=1;fillColor=#F19A97;strokeColor=#F19A97;shadow=1;glass=0;sketch=0;" vertex="1" parent="1">
          <mxGeometry x="624" y="288" width="120" height="60" as="geometry" />
        </mxCell>
        <mxCell id="q62LZAC1qhZ32H_XYZBD-8" value="&lt;font color=&quot;#ffffff&quot;&gt;F19A97&lt;/font&gt;" style="whiteSpace=wrap;html=1;rounded=1;fillColor=#696773;strokeColor=#696773;shadow=1;" vertex="1" parent="1">
          <mxGeometry x="624" y="383" width="120" height="60" as="geometry" />
        </mxCell>
        <mxCell id="q62LZAC1qhZ32H_XYZBD-9" value="EFF1F3" style="whiteSpace=wrap;html=1;rounded=1;fillColor=#EFF1F3;strokeColor=#EFF1F3;shadow=1;" vertex="1" parent="1">
          <mxGeometry x="624" y="470" width="120" height="60" as="geometry" />
        </mxCell>
        <mxCell id="q62LZAC1qhZ32H_XYZBD-15" value="&lt;font color=&quot;#ffffff&quot;&gt;2F6FED&lt;/font&gt;" style="whiteSpace=wrap;html=1;rounded=1;fillColor=#2F6FED;strokeColor=#F19A97;shadow=1;glass=0;sketch=0;strokeWidth=0;" vertex="1" parent="1">
          <mxGeometry x="394" y="128.5" width="120" height="60" as="geometry" />
        </mxCell>
        <mxCell id="q62LZAC1qhZ32H_XYZBD-16" value="" style="whiteSpace=wrap;html=1;fillColor=#F19A97;strokeColor=#F19A97;rounded=1;shadow=1;glass=0;sketch=0;" vertex="1" parent="1">
          <mxGeometry x="394" y="225" width="120" height="60" as="geometry" />
        </mxCell>
        <mxCell id="q62LZAC1qhZ32H_XYZBD-18" value="" style="whiteSpace=wrap;html=1;fillColor=#F19A97;strokeColor=#F19A97;rounded=1;shadow=1;glass=0;sketch=0;" vertex="1" parent="1">
          <mxGeometry x="394" y="327.5" width="120" height="60" as="geometry" />
        </mxCell>
        <mxCell id="q62LZAC1qhZ32H_XYZBD-24" value="Text" style="text;html=1;align=center;verticalAlign=middle;resizable=0;points=[];autosize=1;strokeColor=none;fillColor=none;fontColor=#FFFFFF;" vertex="1" parent="1">
          <mxGeometry x="488" y="558" width="40" height="20" as="geometry" />
        </mxCell>
        <mxCell id="q62LZAC1qhZ32H_XYZBD-25" value="" style="rounded=1;whiteSpace=wrap;html=1;shadow=0;fillColor=#F4F1DE;strokeWidth=0;dashed=1;" vertex="1" parent="1">
          <mxGeometry x="85" y="695" width="492" height="323" as="geometry" />
        </mxCell>
        <mxCell id="q62LZAC1qhZ32H_XYZBD-26" style="edgeStyle=orthogonalEdgeStyle;rounded=0;orthogonalLoop=1;jettySize=auto;html=1;exitX=1;exitY=0.5;exitDx=0;exitDy=0;fontColor=#FFFFFF;strokeWidth=2;strokeColor=#696773;dashed=1;" edge="1" source="q62LZAC1qhZ32H_XYZBD-29" target="q62LZAC1qhZ32H_XYZBD-37" parent="1">
          <mxGeometry relative="1" as="geometry" />
        </mxCell>
        <mxCell id="q62LZAC1qhZ32H_XYZBD-27" style="edgeStyle=orthogonalEdgeStyle;rounded=0;orthogonalLoop=1;jettySize=auto;html=1;exitX=1;exitY=0.75;exitDx=0;exitDy=0;entryX=0;entryY=0.5;entryDx=0;entryDy=0;fontColor=#FFFFFF;strokeColor=#696773;strokeWidth=2;dashed=1;" edge="1" source="q62LZAC1qhZ32H_XYZBD-29" target="q62LZAC1qhZ32H_XYZBD-38" parent="1">
          <mxGeometry relative="1" as="geometry" />
        </mxCell>
        <mxCell id="q62LZAC1qhZ32H_XYZBD-28" style="edgeStyle=orthogonalEdgeStyle;rounded=0;orthogonalLoop=1;jettySize=auto;html=1;exitX=1;exitY=0.25;exitDx=0;exitDy=0;entryX=0;entryY=0.5;entryDx=0;entryDy=0;fontColor=#FFFFFF;strokeColor=#696773;strokeWidth=2;dashed=1;" edge="1" source="q62LZAC1qhZ32H_XYZBD-29" target="q62LZAC1qhZ32H_XYZBD-36" parent="1">
          <mxGeometry relative="1" as="geometry" />
        </mxCell>
        <mxCell id="q62LZAC1qhZ32H_XYZBD-29" value="" style="rounded=1;whiteSpace=wrap;html=1;fillColor=#79D9CE;strokeColor=#79D9CE;shadow=1;" vertex="1" parent="1">
          <mxGeometry x="116" y="821" width="120" height="60" as="geometry" />
        </mxCell>
        <mxCell id="q62LZAC1qhZ32H_XYZBD-30" value="&lt;font color=&quot;#ffffff&quot;&gt;3D405B&lt;/font&gt;" style="whiteSpace=wrap;html=1;rounded=1;fillColor=#3D405B;shadow=1;strokeWidth=0;strokeColor=#77AAC2;" vertex="1" parent="1">
          <mxGeometry x="630" y="626" width="120" height="60" as="geometry" />
        </mxCell>
        <mxCell id="q62LZAC1qhZ32H_XYZBD-31" value="&lt;font color=&quot;#ffffff&quot;&gt;81B29A&lt;/font&gt;" style="whiteSpace=wrap;html=1;rounded=1;fillColor=#81B29A;strokeColor=#79D9CE;strokeWidth=0;shadow=1;" vertex="1" parent="1">
          <mxGeometry x="630" y="713" width="120" height="60" as="geometry" />
        </mxCell>
        <mxCell id="q62LZAC1qhZ32H_XYZBD-32" value="&lt;font color=&quot;#ffffff&quot;&gt;F2CC8F&lt;/font&gt;" style="whiteSpace=wrap;html=1;rounded=1;fillColor=#F2CC8F;strokeColor=#FCD765;shadow=1;" vertex="1" parent="1">
          <mxGeometry x="630" y="797" width="120" height="60" as="geometry" />
        </mxCell>
        <mxCell id="q62LZAC1qhZ32H_XYZBD-33" value="&lt;font color=&quot;#ffffff&quot;&gt;E07A5F&lt;/font&gt;" style="whiteSpace=wrap;html=1;rounded=1;fillColor=#E07A5F;strokeColor=#F19A97;shadow=1;glass=0;sketch=0;" vertex="1" parent="1">
          <mxGeometry x="630" y="884" width="120" height="60" as="geometry" />
        </mxCell>
        <mxCell id="q62LZAC1qhZ32H_XYZBD-34" value="&lt;font color=&quot;#ffffff&quot;&gt;696773&lt;/font&gt;" style="whiteSpace=wrap;html=1;rounded=1;fillColor=#696773;strokeColor=#696773;shadow=1;" vertex="1" parent="1">
          <mxGeometry x="630" y="979" width="120" height="60" as="geometry" />
        </mxCell>
        <mxCell id="q62LZAC1qhZ32H_XYZBD-35" value="F4F1DE" style="whiteSpace=wrap;html=1;rounded=1;fillColor=#F4F1DE;strokeColor=#EFF1F3;shadow=1;" vertex="1" parent="1">
          <mxGeometry x="630" y="1066" width="120" height="60" as="geometry" />
        </mxCell>
        <mxCell id="q62LZAC1qhZ32H_XYZBD-36" value="&lt;font color=&quot;#ffffff&quot;&gt;2F6FED&lt;/font&gt;" style="whiteSpace=wrap;html=1;rounded=1;fillColor=#2F6FED;strokeColor=#F19A97;shadow=1;glass=0;sketch=0;strokeWidth=0;" vertex="1" parent="1">
          <mxGeometry x="400" y="724.5" width="120" height="60" as="geometry" />
        </mxCell>
        <mxCell id="q62LZAC1qhZ32H_XYZBD-37" value="" style="whiteSpace=wrap;html=1;fillColor=#F19A97;strokeColor=#F19A97;rounded=1;shadow=1;glass=0;sketch=0;" vertex="1" parent="1">
          <mxGeometry x="400" y="821" width="120" height="60" as="geometry" />
        </mxCell>
        <mxCell id="q62LZAC1qhZ32H_XYZBD-38" value="" style="whiteSpace=wrap;html=1;fillColor=#F19A97;strokeColor=#F19A97;rounded=1;shadow=1;glass=0;sketch=0;" vertex="1" parent="1">
          <mxGeometry x="400" y="923.5" width="120" height="60" as="geometry" />
        </mxCell>
        <mxCell id="q62LZAC1qhZ32H_XYZBD-39" value="" style="rounded=1;whiteSpace=wrap;html=1;shadow=0;fillColor=#0B1922;strokeWidth=0;dashed=1;" vertex="1" parent="1">
          <mxGeometry x="876" y="657" width="492" height="323" as="geometry" />
        </mxCell>
        <mxCell id="q62LZAC1qhZ32H_XYZBD-40" style="edgeStyle=orthogonalEdgeStyle;rounded=0;orthogonalLoop=1;jettySize=auto;html=1;exitX=1;exitY=0.5;exitDx=0;exitDy=0;fontColor=#FFFFFF;strokeWidth=2;strokeColor=#696773;dashed=1;" edge="1" source="q62LZAC1qhZ32H_XYZBD-43" target="q62LZAC1qhZ32H_XYZBD-51" parent="1">
          <mxGeometry relative="1" as="geometry" />
        </mxCell>
        <mxCell id="q62LZAC1qhZ32H_XYZBD-41" style="edgeStyle=orthogonalEdgeStyle;rounded=0;orthogonalLoop=1;jettySize=auto;html=1;exitX=1;exitY=0.75;exitDx=0;exitDy=0;entryX=0;entryY=0.5;entryDx=0;entryDy=0;fontColor=#FFFFFF;strokeColor=#696773;strokeWidth=2;dashed=1;" edge="1" source="q62LZAC1qhZ32H_XYZBD-43" target="q62LZAC1qhZ32H_XYZBD-52" parent="1">
          <mxGeometry relative="1" as="geometry" />
        </mxCell>
        <mxCell id="q62LZAC1qhZ32H_XYZBD-42" style="edgeStyle=orthogonalEdgeStyle;rounded=0;orthogonalLoop=1;jettySize=auto;html=1;exitX=1;exitY=0.25;exitDx=0;exitDy=0;entryX=0;entryY=0.5;entryDx=0;entryDy=0;fontColor=#FFFFFF;strokeColor=#696773;strokeWidth=2;dashed=1;" edge="1" source="q62LZAC1qhZ32H_XYZBD-43" target="q62LZAC1qhZ32H_XYZBD-50" parent="1">
          <mxGeometry relative="1" as="geometry" />
        </mxCell>
        <mxCell id="q62LZAC1qhZ32H_XYZBD-43" value="" style="rounded=1;whiteSpace=wrap;html=1;fillColor=#79D9CE;strokeColor=#79D9CE;shadow=1;" vertex="1" parent="1">
          <mxGeometry x="899" y="792" width="120" height="60" as="geometry" />
        </mxCell>
        <mxCell id="q62LZAC1qhZ32H_XYZBD-44" value="&lt;font color=&quot;#ffffff&quot;&gt;0283C0&lt;/font&gt;" style="whiteSpace=wrap;html=1;rounded=1;fillColor=#0283C0;shadow=1;strokeWidth=0;strokeColor=#77AAC2;" vertex="1" parent="1">
          <mxGeometry x="1413" y="597" width="120" height="60" as="geometry" />
        </mxCell>
        <mxCell id="q62LZAC1qhZ32H_XYZBD-45" value="&lt;font color=&quot;#ffffff&quot;&gt;04A789&lt;/font&gt;" style="whiteSpace=wrap;html=1;rounded=1;fillColor=#04A789;strokeColor=#79D9CE;strokeWidth=0;shadow=1;" vertex="1" parent="1">
          <mxGeometry x="1413" y="684" width="120" height="60" as="geometry" />
        </mxCell>
        <mxCell id="q62LZAC1qhZ32H_XYZBD-46" value="FCD701" style="whiteSpace=wrap;html=1;rounded=1;fillColor=#FCD701;strokeColor=#FCD765;shadow=1;" vertex="1" parent="1">
          <mxGeometry x="1413" y="768" width="120" height="60" as="geometry" />
        </mxCell>
        <mxCell id="q62LZAC1qhZ32H_XYZBD-47" value="&lt;font color=&quot;#ffffff&quot;&gt;C8167E&lt;/font&gt;" style="whiteSpace=wrap;html=1;rounded=1;fillColor=#C8167E;strokeColor=#F19A97;shadow=1;glass=0;sketch=0;" vertex="1" parent="1">
          <mxGeometry x="1413" y="855" width="120" height="60" as="geometry" />
        </mxCell>
        <mxCell id="q62LZAC1qhZ32H_XYZBD-48" value="E7E8E9" style="whiteSpace=wrap;html=1;rounded=1;fillColor=#E7E8E9;strokeColor=#E7E8E9;shadow=1;strokeWidth=0;" vertex="1" parent="1">
          <mxGeometry x="1413" y="950" width="120" height="60" as="geometry" />
        </mxCell>
        <mxCell id="q62LZAC1qhZ32H_XYZBD-49" value="&lt;font color=&quot;#eff1f3&quot;&gt;0B1922&lt;/font&gt;" style="whiteSpace=wrap;html=1;rounded=1;fillColor=#0B1922;strokeColor=#0B1922;shadow=1;" vertex="1" parent="1">
          <mxGeometry x="1413" y="1037" width="120" height="60" as="geometry" />
        </mxCell>
        <mxCell id="q62LZAC1qhZ32H_XYZBD-50" value="&lt;font color=&quot;#ffffff&quot;&gt;2F6FED&lt;/font&gt;" style="whiteSpace=wrap;html=1;rounded=1;fillColor=#04A789;strokeColor=#F19A97;shadow=1;glass=0;sketch=0;strokeWidth=0;" vertex="1" parent="1">
          <mxGeometry x="1183" y="695.5" width="120" height="60" as="geometry" />
        </mxCell>
        <mxCell id="q62LZAC1qhZ32H_XYZBD-51" value="0283C0" style="whiteSpace=wrap;html=1;fillColor=#0283C0;strokeColor=#F19A97;rounded=1;shadow=1;glass=0;sketch=0;fontColor=#FFFFFF;strokeWidth=0;" vertex="1" parent="1">
          <mxGeometry x="1183" y="792" width="120" height="60" as="geometry" />
        </mxCell>
        <mxCell id="q62LZAC1qhZ32H_XYZBD-52" value="C8167E" style="whiteSpace=wrap;html=1;fillColor=#C8167E;strokeColor=#F19A97;rounded=1;shadow=1;glass=0;sketch=0;fontColor=#FFFFFF;strokeWidth=0;" vertex="1" parent="1">
          <mxGeometry x="1183" y="894.5" width="120" height="60" as="geometry" />
        </mxCell>
        <mxCell id="q62LZAC1qhZ32H_XYZBD-53" value="" style="rounded=1;whiteSpace=wrap;html=1;shadow=0;fillColor=#EFF1F3;strokeWidth=0;dashed=1;" vertex="1" parent="1">
          <mxGeometry x="880.5" y="110" width="492" height="323" as="geometry" />
        </mxCell>
        <mxCell id="q62LZAC1qhZ32H_XYZBD-54" style="edgeStyle=orthogonalEdgeStyle;rounded=0;orthogonalLoop=1;jettySize=auto;html=1;exitX=1;exitY=0.5;exitDx=0;exitDy=0;fontColor=#FFFFFF;strokeWidth=2;strokeColor=#696773;dashed=1;" edge="1" source="q62LZAC1qhZ32H_XYZBD-57" target="q62LZAC1qhZ32H_XYZBD-65" parent="1">
          <mxGeometry relative="1" as="geometry" />
        </mxCell>
        <mxCell id="q62LZAC1qhZ32H_XYZBD-55" style="edgeStyle=orthogonalEdgeStyle;rounded=0;orthogonalLoop=1;jettySize=auto;html=1;exitX=1;exitY=0.75;exitDx=0;exitDy=0;entryX=0;entryY=0.5;entryDx=0;entryDy=0;fontColor=#FFFFFF;strokeColor=#696773;strokeWidth=2;dashed=1;" edge="1" source="q62LZAC1qhZ32H_XYZBD-57" target="q62LZAC1qhZ32H_XYZBD-66" parent="1">
          <mxGeometry relative="1" as="geometry" />
        </mxCell>
        <mxCell id="q62LZAC1qhZ32H_XYZBD-56" style="edgeStyle=orthogonalEdgeStyle;rounded=0;orthogonalLoop=1;jettySize=auto;html=1;exitX=1;exitY=0.25;exitDx=0;exitDy=0;entryX=0;entryY=0.5;entryDx=0;entryDy=0;fontColor=#FFFFFF;strokeColor=#696773;strokeWidth=2;dashed=1;" edge="1" source="q62LZAC1qhZ32H_XYZBD-57" target="q62LZAC1qhZ32H_XYZBD-64" parent="1">
          <mxGeometry relative="1" as="geometry" />
        </mxCell>
        <mxCell id="q62LZAC1qhZ32H_XYZBD-57" value="" style="rounded=1;whiteSpace=wrap;html=1;fillColor=#79D9CE;strokeColor=#79D9CE;shadow=1;" vertex="1" parent="1">
          <mxGeometry x="911.5" y="236" width="120" height="60" as="geometry" />
        </mxCell>
        <mxCell id="q62LZAC1qhZ32H_XYZBD-58" value="&lt;font color=&quot;#ffffff&quot;&gt;95E1D3&lt;/font&gt;" style="whiteSpace=wrap;html=1;rounded=1;fillColor=#95e1d3;shadow=1;strokeWidth=0;strokeColor=#77AAC2;" vertex="1" parent="1">
          <mxGeometry x="1425.5" y="41" width="120" height="60" as="geometry" />
        </mxCell>
        <mxCell id="q62LZAC1qhZ32H_XYZBD-59" value="EAFFD0" style="whiteSpace=wrap;html=1;rounded=1;fillColor=#EAFFD0;strokeColor=#000000;strokeWidth=0;shadow=1;" vertex="1" parent="1">
          <mxGeometry x="1425.5" y="128" width="120" height="60" as="geometry" />
        </mxCell>
        <mxCell id="q62LZAC1qhZ32H_XYZBD-60" value="FCE38A" style="whiteSpace=wrap;html=1;rounded=1;fillColor=#FCE38A;strokeColor=#FCD765;shadow=1;" vertex="1" parent="1">
          <mxGeometry x="1425.5" y="212" width="120" height="60" as="geometry" />
        </mxCell>
        <mxCell id="q62LZAC1qhZ32H_XYZBD-61" value="&lt;font color=&quot;#ffffff&quot;&gt;F38181&lt;/font&gt;" style="whiteSpace=wrap;html=1;rounded=1;fillColor=#F38181;strokeColor=#F19A97;shadow=1;glass=0;sketch=0;" vertex="1" parent="1">
          <mxGeometry x="1425.5" y="299" width="120" height="60" as="geometry" />
        </mxCell>
        <mxCell id="q62LZAC1qhZ32H_XYZBD-62" value="&lt;font color=&quot;#ffffff&quot;&gt;696773&lt;/font&gt;" style="whiteSpace=wrap;html=1;rounded=1;fillColor=#696773;strokeColor=#696773;shadow=1;" vertex="1" parent="1">
          <mxGeometry x="1425.5" y="394" width="120" height="60" as="geometry" />
        </mxCell>
        <mxCell id="q62LZAC1qhZ32H_XYZBD-63" value="EFF1F3" style="whiteSpace=wrap;html=1;rounded=1;fillColor=#EFF1F3;strokeColor=#EFF1F3;shadow=1;" vertex="1" parent="1">
          <mxGeometry x="1425.5" y="481" width="120" height="60" as="geometry" />
        </mxCell>
        <mxCell id="q62LZAC1qhZ32H_XYZBD-64" value="&lt;font color=&quot;#ffffff&quot;&gt;2F6FED&lt;/font&gt;" style="whiteSpace=wrap;html=1;rounded=1;fillColor=#2F6FED;strokeColor=#F19A97;shadow=1;glass=0;sketch=0;strokeWidth=0;" vertex="1" parent="1">
          <mxGeometry x="1195.5" y="139.5" width="120" height="60" as="geometry" />
        </mxCell>
        <mxCell id="q62LZAC1qhZ32H_XYZBD-65" value="" style="whiteSpace=wrap;html=1;fillColor=#F19A97;strokeColor=#F19A97;rounded=1;shadow=1;glass=0;sketch=0;" vertex="1" parent="1">
          <mxGeometry x="1195.5" y="236" width="120" height="60" as="geometry" />
        </mxCell>
        <mxCell id="q62LZAC1qhZ32H_XYZBD-66" value="" style="whiteSpace=wrap;html=1;fillColor=#F19A97;strokeColor=#F19A97;rounded=1;shadow=1;glass=0;sketch=0;" vertex="1" parent="1">
          <mxGeometry x="1195.5" y="338.5" width="120" height="60" as="geometry" />
        </mxCell>
        <mxCell id="q62LZAC1qhZ32H_XYZBD-67" value="" style="rounded=0;whiteSpace=wrap;html=1;shadow=1;glass=0;dashed=1;sketch=0;fontColor=#FFFFFF;strokeColor=#0B1922;strokeWidth=0;fillColor=#5F5D72;" vertex="1" parent="1">
          <mxGeometry x="325" y="1223" width="466" height="272" as="geometry" />
        </mxCell>
        <mxCell id="q62LZAC1qhZ32H_XYZBD-70" value="" style="edgeStyle=orthogonalEdgeStyle;rounded=0;orthogonalLoop=1;jettySize=auto;html=1;fontColor=#FFFFFF;strokeColor=#EFF1F3;strokeWidth=2;curved=1;" edge="1" parent="1" source="q62LZAC1qhZ32H_XYZBD-68" target="q62LZAC1qhZ32H_XYZBD-69">
          <mxGeometry relative="1" as="geometry" />
        </mxCell>
        <mxCell id="q62LZAC1qhZ32H_XYZBD-72" value="" style="edgeStyle=orthogonalEdgeStyle;rounded=0;orthogonalLoop=1;jettySize=auto;html=1;fontColor=#FFFFFF;strokeColor=#EFF1F3;strokeWidth=2;curved=1;" edge="1" parent="1" source="q62LZAC1qhZ32H_XYZBD-68" target="q62LZAC1qhZ32H_XYZBD-71">
          <mxGeometry relative="1" as="geometry" />
        </mxCell>
        <mxCell id="q62LZAC1qhZ32H_XYZBD-68" value="&lt;b&gt;&lt;font style=&quot;font-size: 17px;&quot;&gt;Node 1&lt;/font&gt;&lt;/b&gt;" style="rounded=1;whiteSpace=wrap;html=1;shadow=1;glass=0;dashed=1;sketch=0;fontColor=#FFFFFF;strokeColor=#0B1922;strokeWidth=0;fillColor=#222138;" vertex="1" parent="1">
          <mxGeometry x="498" y="1270" width="120" height="60" as="geometry" />
        </mxCell>
        <mxCell id="q62LZAC1qhZ32H_XYZBD-69" value="&lt;b&gt;&lt;font style=&quot;font-size: 17px;&quot;&gt;Node 2&lt;/font&gt;&lt;/b&gt;" style="whiteSpace=wrap;html=1;fillColor=#222138;strokeColor=#0B1922;fontColor=#FFFFFF;rounded=1;shadow=1;glass=0;dashed=1;sketch=0;strokeWidth=0;" vertex="1" parent="1">
          <mxGeometry x="400" y="1365" width="120" height="60" as="geometry" />
        </mxCell>
        <mxCell id="q62LZAC1qhZ32H_XYZBD-71" value="&lt;b&gt;&lt;font style=&quot;font-size: 17px;&quot;&gt;Node 3&lt;/font&gt;&lt;/b&gt;" style="whiteSpace=wrap;html=1;fillColor=#222138;strokeColor=#0B1922;fontColor=#FFFFFF;rounded=1;shadow=1;glass=0;dashed=1;sketch=0;strokeWidth=0;" vertex="1" parent="1">
          <mxGeometry x="590" y="1365" width="120" height="60" as="geometry" />
        </mxCell>
        <mxCell id="q62LZAC1qhZ32H_XYZBD-73" value="" style="rounded=1;whiteSpace=wrap;html=1;shadow=1;glass=0;sketch=0;fontSize=17;fontColor=#FFFFFF;strokeColor=#222138;strokeWidth=1;fillColor=#FFFFFF;" vertex="1" parent="1">
          <mxGeometry x="407" y="1619" width="721" height="81" as="geometry" />
        </mxCell>
        <mxCell id="q62LZAC1qhZ32H_XYZBD-74" value="Access" style="rounded=1;whiteSpace=wrap;html=1;shadow=1;glass=0;dashed=1;sketch=0;fontSize=17;fontColor=#FFFFFF;strokeColor=#0B1922;strokeWidth=0;fillColor=#0089BE;fontStyle=2" vertex="1" parent="1">
          <mxGeometry x="484" y="1636.75" width="90" height="45.5" as="geometry" />
        </mxCell>
        <mxCell id="q62LZAC1qhZ32H_XYZBD-75" value="&lt;font color=&quot;#222138&quot;&gt;接入层&lt;/font&gt;" style="text;html=1;strokeColor=none;fillColor=none;align=center;verticalAlign=middle;whiteSpace=wrap;rounded=0;shadow=1;glass=0;sketch=0;fontSize=17;fontColor=#FFFFFF;" vertex="1" parent="1">
          <mxGeometry x="411" y="1641.5" width="61" height="36" as="geometry" />
        </mxCell>
        <mxCell id="q62LZAC1qhZ32H_XYZBD-76" value="Access" style="rounded=1;whiteSpace=wrap;html=1;shadow=1;glass=0;dashed=1;sketch=0;fontSize=17;fontColor=#FFFFFF;strokeColor=#0B1922;strokeWidth=0;fillColor=#0089BE;fontStyle=2" vertex="1" parent="1">
          <mxGeometry x="654" y="1636.75" width="90" height="45.5" as="geometry" />
        </mxCell>
        <mxCell id="q62LZAC1qhZ32H_XYZBD-78" value="Access" style="rounded=1;whiteSpace=wrap;html=1;shadow=1;glass=0;dashed=1;sketch=0;fontSize=17;fontColor=#FFFFFF;strokeColor=#0B1922;strokeWidth=0;fillColor=#0089BE;fontStyle=2" vertex="1" parent="1">
          <mxGeometry x="824" y="1636.75" width="90" height="45.5" as="geometry" />
        </mxCell>
        <mxCell id="q62LZAC1qhZ32H_XYZBD-80" value="Access" style="rounded=1;whiteSpace=wrap;html=1;shadow=1;glass=0;dashed=1;sketch=0;fontSize=17;fontColor=#FFFFFF;strokeColor=#0B1922;strokeWidth=0;fillColor=#0089BE;fontStyle=2" vertex="1" parent="1">
          <mxGeometry x="994" y="1636.75" width="90" height="45.5" as="geometry" />
        </mxCell>
        <mxCell id="q62LZAC1qhZ32H_XYZBD-82" value="" style="rounded=0;whiteSpace=wrap;html=1;shadow=0;glass=0;sketch=0;fontSize=17;fontColor=#FFFFFF;strokeColor=#222138;strokeWidth=1;fillColor=#FFFFFF;" vertex="1" parent="1">
          <mxGeometry x="406" y="1750" width="722" height="340" as="geometry" />
        </mxCell>
        <mxCell id="q62LZAC1qhZ32H_XYZBD-83" value="" style="rounded=1;whiteSpace=wrap;html=1;shadow=0;glass=0;sketch=0;fontSize=17;fontColor=#FFFFFF;strokeColor=#222138;strokeWidth=1;fillColor=#FFFFFF;dashed=1;" vertex="1" parent="1">
          <mxGeometry x="417" y="1781" width="156" height="268" as="geometry" />
        </mxCell>
        <mxCell id="q62LZAC1qhZ32H_XYZBD-123" style="rounded=0;orthogonalLoop=1;jettySize=auto;html=1;exitX=0.12;exitY=0.023;exitDx=0;exitDy=0;fontSize=12;fontColor=#222138;strokeColor=#222138;strokeWidth=1;endArrow=none;endFill=0;startArrow=classic;startFill=1;entryX=0.344;entryY=1.014;entryDx=0;entryDy=0;entryPerimeter=0;exitPerimeter=0;dashed=1;" edge="1" parent="1" source="q62LZAC1qhZ32H_XYZBD-84" target="q62LZAC1qhZ32H_XYZBD-73">
          <mxGeometry relative="1" as="geometry">
            <mxPoint x="698.3333333333335" y="1704.5" as="targetPoint" />
          </mxGeometry>
        </mxCell>
        <mxCell id="q62LZAC1qhZ32H_XYZBD-124" style="edgeStyle=none;rounded=0;orthogonalLoop=1;jettySize=auto;html=1;exitX=0.5;exitY=0;exitDx=0;exitDy=0;entryX=0.52;entryY=1.014;entryDx=0;entryDy=0;entryPerimeter=0;fontSize=12;fontColor=#222138;strokeColor=#222138;strokeWidth=1;endArrow=none;endFill=0;startArrow=classic;startFill=1;dashed=1;" edge="1" parent="1" source="q62LZAC1qhZ32H_XYZBD-84" target="q62LZAC1qhZ32H_XYZBD-73">
          <mxGeometry relative="1" as="geometry" />
        </mxCell>
        <mxCell id="q62LZAC1qhZ32H_XYZBD-84" value="" style="rounded=1;whiteSpace=wrap;html=1;shadow=0;glass=0;sketch=0;fontSize=17;fontColor=#FFFFFF;strokeColor=#222138;strokeWidth=1;fillColor=#FFFFFF;dashed=1;" vertex="1" parent="1">
          <mxGeometry x="615" y="1792" width="333" height="72" as="geometry" />
        </mxCell>
        <mxCell id="q62LZAC1qhZ32H_XYZBD-125" style="edgeStyle=none;rounded=0;orthogonalLoop=1;jettySize=auto;html=1;exitX=0.75;exitY=0;exitDx=0;exitDy=0;fontSize=12;fontColor=#222138;strokeColor=#A9A9A9;strokeWidth=2;dashed=1;endArrow=none;endFill=0;startArrow=classic;startFill=1;" edge="1" parent="1" source="q62LZAC1qhZ32H_XYZBD-85">
          <mxGeometry relative="1" as="geometry">
            <mxPoint x="862" y="1702" as="targetPoint" />
          </mxGeometry>
        </mxCell>
        <mxCell id="q62LZAC1qhZ32H_XYZBD-85" value="" style="rounded=1;whiteSpace=wrap;html=1;shadow=0;glass=0;sketch=0;fontSize=17;fontColor=#FFFFFF;strokeColor=#222138;strokeWidth=1;fillColor=#FFFFFF;dashed=1;" vertex="1" parent="1">
          <mxGeometry x="603" y="1909" width="345" height="140" as="geometry" />
        </mxCell>
        <mxCell id="q62LZAC1qhZ32H_XYZBD-88" value="Access" style="rounded=1;whiteSpace=wrap;html=1;shadow=1;glass=0;dashed=1;sketch=0;fontSize=17;fontColor=#FFFFFF;strokeColor=#0B1922;strokeWidth=0;fillColor=#0089BE;fontStyle=2" vertex="1" parent="1">
          <mxGeometry x="644" y="1926" width="90" height="45.5" as="geometry" />
        </mxCell>
        <mxCell id="q62LZAC1qhZ32H_XYZBD-89" value="Access" style="rounded=1;whiteSpace=wrap;html=1;shadow=1;glass=0;dashed=1;sketch=0;fontSize=17;fontColor=#FFFFFF;strokeColor=#0B1922;strokeWidth=0;fillColor=#0089BE;fontStyle=2" vertex="1" parent="1">
          <mxGeometry x="644" y="1990" width="90" height="45.5" as="geometry" />
        </mxCell>
        <mxCell id="q62LZAC1qhZ32H_XYZBD-91" value="Access" style="rounded=1;whiteSpace=wrap;html=1;shadow=1;glass=0;dashed=1;sketch=0;fontSize=17;fontColor=#FFFFFF;strokeColor=#0B1922;strokeWidth=0;fillColor=#0089BE;fontStyle=2" vertex="1" parent="1">
          <mxGeometry x="752" y="1926" width="90" height="45.5" as="geometry" />
        </mxCell>
        <mxCell id="q62LZAC1qhZ32H_XYZBD-92" value="Access" style="rounded=1;whiteSpace=wrap;html=1;shadow=1;glass=0;dashed=1;sketch=0;fontSize=17;fontColor=#FFFFFF;strokeColor=#0B1922;strokeWidth=0;fillColor=#0089BE;fontStyle=2" vertex="1" parent="1">
          <mxGeometry x="752" y="1990" width="90" height="45.5" as="geometry" />
        </mxCell>
        <mxCell id="q62LZAC1qhZ32H_XYZBD-93" value="Access" style="rounded=1;whiteSpace=wrap;html=1;shadow=1;glass=0;dashed=1;sketch=0;fontSize=17;fontColor=#FFFFFF;strokeColor=#0B1922;strokeWidth=0;fillColor=#0089BE;fontStyle=2" vertex="1" parent="1">
          <mxGeometry x="851" y="1924.75" width="90" height="45.5" as="geometry" />
        </mxCell>
        <mxCell id="q62LZAC1qhZ32H_XYZBD-94" value="Access" style="rounded=1;whiteSpace=wrap;html=1;shadow=1;glass=0;dashed=1;sketch=0;fontSize=17;fontColor=#FFFFFF;strokeColor=#0B1922;strokeWidth=0;fillColor=#0089BE;fontStyle=2" vertex="1" parent="1">
          <mxGeometry x="851" y="1988.75" width="90" height="45.5" as="geometry" />
        </mxCell>
        <mxCell id="q62LZAC1qhZ32H_XYZBD-95" value="Proxy" style="rounded=1;whiteSpace=wrap;html=1;shadow=0;glass=0;sketch=0;fontSize=17;fontColor=#222138;strokeColor=#0B1922;strokeWidth=0;fillColor=#EEEEEE;fontStyle=2" vertex="1" parent="1">
          <mxGeometry x="633" y="1804" width="90" height="45.5" as="geometry" />
        </mxCell>
        <mxCell id="q62LZAC1qhZ32H_XYZBD-96" value="Proxy" style="rounded=1;whiteSpace=wrap;html=1;shadow=0;glass=0;sketch=0;fontSize=17;fontColor=#222138;strokeColor=#0B1922;strokeWidth=0;fillColor=#EEEEEE;fontStyle=2" vertex="1" parent="1">
          <mxGeometry x="743" y="1804" width="90" height="45.5" as="geometry" />
        </mxCell>
        <mxCell id="q62LZAC1qhZ32H_XYZBD-97" value="&lt;font color=&quot;#222138&quot;&gt;代理层&lt;/font&gt;" style="text;html=1;strokeColor=none;fillColor=none;align=center;verticalAlign=middle;whiteSpace=wrap;rounded=0;shadow=1;glass=0;sketch=0;fontSize=17;fontColor=#FFFFFF;" vertex="1" parent="1">
          <mxGeometry x="871" y="1810" width="61" height="36" as="geometry" />
        </mxCell>
        <mxCell id="q62LZAC1qhZ32H_XYZBD-99" value="&lt;b style=&quot;font-size: 12px;&quot;&gt;Meta data 1&lt;/b&gt;" style="rounded=1;whiteSpace=wrap;html=1;shadow=1;glass=0;dashed=1;sketch=0;fontSize=17;fontColor=#222138;strokeColor=#0B1922;strokeWidth=0;fillColor=#DAD2CA;fontStyle=2" vertex="1" parent="1">
          <mxGeometry x="476" y="1797" width="90" height="45.5" as="geometry" />
        </mxCell>
        <mxCell id="q62LZAC1qhZ32H_XYZBD-100" value="&lt;b style=&quot;font-size: 12px;&quot;&gt;Meta data 2&lt;/b&gt;" style="rounded=1;whiteSpace=wrap;html=1;shadow=1;glass=0;dashed=1;sketch=0;fontSize=17;fontColor=#222138;strokeColor=#0B1922;strokeWidth=0;fillColor=#DAD2CA;fontStyle=2" vertex="1" parent="1">
          <mxGeometry x="476" y="1865.5" width="90" height="45.5" as="geometry" />
        </mxCell>
        <mxCell id="q62LZAC1qhZ32H_XYZBD-102" value="&lt;font style=&quot;font-size: 12px;&quot;&gt;&lt;b&gt;Meta data 3&lt;/b&gt;&lt;/font&gt;" style="rounded=1;whiteSpace=wrap;html=1;shadow=1;glass=0;dashed=1;sketch=0;fontSize=17;fontColor=#222138;strokeColor=#0B1922;strokeWidth=0;fillColor=#DAD2CA;fontStyle=2" vertex="1" parent="1">
          <mxGeometry x="476" y="1936" width="90" height="45.5" as="geometry" />
        </mxCell>
        <mxCell id="q62LZAC1qhZ32H_XYZBD-112" style="rounded=0;orthogonalLoop=1;jettySize=auto;html=1;exitX=0.5;exitY=0;exitDx=0;exitDy=0;fontSize=17;fontColor=#222138;strokeColor=#A9A9A9;strokeWidth=2;entryX=0;entryY=0.5;entryDx=0;entryDy=0;edgeStyle=orthogonalEdgeStyle;curved=1;" edge="1" parent="1" source="q62LZAC1qhZ32H_XYZBD-111" target="q62LZAC1qhZ32H_XYZBD-102">
          <mxGeometry relative="1" as="geometry" />
        </mxCell>
        <mxCell id="q62LZAC1qhZ32H_XYZBD-113" style="rounded=0;orthogonalLoop=1;jettySize=auto;html=1;exitX=0.5;exitY=0;exitDx=0;exitDy=0;entryX=0;entryY=0.5;entryDx=0;entryDy=0;fontSize=17;fontColor=#222138;strokeColor=#A9A9A9;strokeWidth=2;edgeStyle=orthogonalEdgeStyle;curved=1;" edge="1" parent="1" source="q62LZAC1qhZ32H_XYZBD-111" target="q62LZAC1qhZ32H_XYZBD-100">
          <mxGeometry relative="1" as="geometry" />
        </mxCell>
        <mxCell id="q62LZAC1qhZ32H_XYZBD-114" style="rounded=0;orthogonalLoop=1;jettySize=auto;html=1;exitX=0.5;exitY=0;exitDx=0;exitDy=0;entryX=0;entryY=0.5;entryDx=0;entryDy=0;fontSize=17;fontColor=#222138;strokeColor=#A9A9A9;strokeWidth=2;edgeStyle=orthogonalEdgeStyle;curved=1;" edge="1" parent="1" source="q62LZAC1qhZ32H_XYZBD-111" target="q62LZAC1qhZ32H_XYZBD-99">
          <mxGeometry relative="1" as="geometry" />
        </mxCell>
        <mxCell id="q62LZAC1qhZ32H_XYZBD-111" value="Raft" style="rounded=1;whiteSpace=wrap;html=1;shadow=0;glass=0;sketch=0;fontSize=17;fontColor=#222138;strokeColor=#222138;strokeWidth=0;fillColor=#DAD2CA;" vertex="1" parent="1">
          <mxGeometry x="417" y="1994" width="60" height="28" as="geometry" />
        </mxCell>
        <mxCell id="q62LZAC1qhZ32H_XYZBD-115" value="" style="rounded=1;whiteSpace=wrap;html=1;shadow=0;glass=0;sketch=0;fontSize=17;fontColor=#FFFFFF;strokeColor=#222138;strokeWidth=1;fillColor=#FFFFFF;dashed=1;" vertex="1" parent="1">
          <mxGeometry x="968" y="1787" width="156" height="268" as="geometry" />
        </mxCell>
        <mxCell id="q62LZAC1qhZ32H_XYZBD-117" value="Access" style="rounded=1;whiteSpace=wrap;html=1;shadow=1;glass=0;dashed=1;sketch=0;fontSize=17;fontColor=#222138;strokeColor=#0B1922;strokeWidth=0;fillColor=#EEEEEE;fontStyle=2" vertex="1" parent="1">
          <mxGeometry x="989" y="1883" width="90" height="45.5" as="geometry" />
        </mxCell>
        <mxCell id="q62LZAC1qhZ32H_XYZBD-118" value="Access" style="rounded=1;whiteSpace=wrap;html=1;shadow=1;glass=0;dashed=1;sketch=0;fontSize=17;fontColor=#222138;strokeColor=#0B1922;strokeWidth=0;fillColor=#EEEEEE;fontStyle=2" vertex="1" parent="1">
          <mxGeometry x="1006" y="1891" width="90" height="45.5" as="geometry" />
        </mxCell>
        <mxCell id="q62LZAC1qhZ32H_XYZBD-119" value="Scheduler" style="rounded=1;whiteSpace=wrap;html=1;shadow=1;glass=0;dashed=1;sketch=0;fontSize=17;fontColor=#222138;strokeColor=#0B1922;strokeWidth=0;fillColor=#EEEEEE;fontStyle=2" vertex="1" parent="1">
          <mxGeometry x="1021" y="1901.5" width="90" height="45.5" as="geometry" />
        </mxCell>
        <mxCell id="q62LZAC1qhZ32H_XYZBD-126" value="" style="rounded=0;whiteSpace=wrap;html=1;shadow=0;glass=0;sketch=0;fontSize=12;fontColor=#222138;strokeColor=#222138;strokeWidth=0;fillColor=#E8E6FF;" vertex="1" parent="1">
          <mxGeometry x="440" y="2247" width="574" height="115" as="geometry" />
        </mxCell>
        <mxCell id="q62LZAC1qhZ32H_XYZBD-127" value="" style="rounded=1;whiteSpace=wrap;html=1;shadow=0;glass=0;sketch=0;fontSize=12;fontColor=#222138;strokeColor=#222138;strokeWidth=0;fillColor=#9581F7;" vertex="1" parent="1">
          <mxGeometry x="493" y="2261" width="118" height="43" as="geometry" />
        </mxCell>
        <mxCell id="q62LZAC1qhZ32H_XYZBD-130" value="" style="rounded=1;whiteSpace=wrap;html=1;shadow=0;glass=0;sketch=0;fontSize=12;fontColor=#222138;strokeColor=#222138;strokeWidth=0;fillColor=#9581F7;" vertex="1" parent="1">
          <mxGeometry x="493" y="2307" width="118" height="43" as="geometry" />
        </mxCell>
        <mxCell id="q62LZAC1qhZ32H_XYZBD-131" value="" style="rounded=1;whiteSpace=wrap;html=1;shadow=0;glass=0;sketch=0;fontSize=12;fontColor=#222138;strokeColor=#222138;strokeWidth=0;fillColor=#9581F7;" vertex="1" parent="1">
          <mxGeometry x="668" y="2261" width="118" height="43" as="geometry" />
        </mxCell>
        <mxCell id="q62LZAC1qhZ32H_XYZBD-132" value="" style="rounded=1;whiteSpace=wrap;html=1;shadow=0;glass=0;sketch=0;fontSize=12;fontColor=#222138;strokeColor=#222138;strokeWidth=0;fillColor=#9581F7;" vertex="1" parent="1">
          <mxGeometry x="668" y="2307" width="118" height="43" as="geometry" />
        </mxCell>
        <mxCell id="q62LZAC1qhZ32H_XYZBD-133" value="" style="rounded=1;whiteSpace=wrap;html=1;shadow=0;glass=0;sketch=0;fontSize=12;fontColor=#222138;strokeColor=#222138;strokeWidth=0;fillColor=#9581F7;" vertex="1" parent="1">
          <mxGeometry x="854" y="2261" width="118" height="43" as="geometry" />
        </mxCell>
        <mxCell id="q62LZAC1qhZ32H_XYZBD-134" value="" style="rounded=1;whiteSpace=wrap;html=1;shadow=0;glass=0;sketch=0;fontSize=12;fontColor=#222138;strokeColor=#222138;strokeWidth=0;fillColor=#9581F7;" vertex="1" parent="1">
          <mxGeometry x="854" y="2307" width="118" height="43" as="geometry" />
        </mxCell>
        <mxCell id="q62LZAC1qhZ32H_XYZBD-145" value="" style="rounded=0;whiteSpace=wrap;html=1;shadow=0;glass=0;sketch=0;fontSize=12;fontColor=#222138;strokeColor=#222138;strokeWidth=0;fillColor=#C3F9F1;" vertex="1" parent="1">
          <mxGeometry x="440" y="2380" width="574" height="115" as="geometry" />
        </mxCell>
        <mxCell id="q62LZAC1qhZ32H_XYZBD-146" value="&lt;span&gt;&lt;font face=&quot;Comic Sans MS&quot; color=&quot;#f4f9fc&quot;&gt;DATA &lt;br&gt;CONNECTORS&lt;/font&gt;&lt;/span&gt;" style="rounded=1;whiteSpace=wrap;html=1;shadow=0;glass=0;sketch=0;fontSize=12;fontColor=#222138;strokeColor=#222138;strokeWidth=0;fillColor=#00BDC7;fontStyle=3" vertex="1" parent="1">
          <mxGeometry x="493" y="2419" width="118" height="43" as="geometry" />
        </mxCell>
        <mxCell id="q62LZAC1qhZ32H_XYZBD-147" value="&lt;b&gt;&lt;font face=&quot;Comic Sans MS&quot; color=&quot;#f4f9fc&quot;&gt;&lt;i style=&quot;&quot;&gt;00BDC7&lt;/i&gt;&lt;/font&gt;&lt;/b&gt;" style="rounded=1;whiteSpace=wrap;html=1;shadow=0;glass=0;sketch=0;fontSize=12;fontColor=#222138;strokeColor=#222138;strokeWidth=0;fillColor=#00BDC7;" vertex="1" parent="1">
          <mxGeometry x="668" y="2416" width="118" height="43" as="geometry" />
        </mxCell>
        <mxCell id="q62LZAC1qhZ32H_XYZBD-149" value="" style="rounded=1;whiteSpace=wrap;html=1;shadow=0;glass=0;sketch=0;fontSize=12;fontColor=#222138;strokeColor=#222138;strokeWidth=0;fillColor=#00BDC7;" vertex="1" parent="1">
          <mxGeometry x="854" y="2414" width="118" height="43" as="geometry" />
        </mxCell>
        <mxCell id="q62LZAC1qhZ32H_XYZBD-151" value="" style="rounded=0;whiteSpace=wrap;html=1;shadow=0;glass=0;sketch=0;fontSize=12;fontColor=#222138;strokeColor=#222138;strokeWidth=0;fillColor=#DDE8FD;" vertex="1" parent="1">
          <mxGeometry x="440" y="2519" width="574" height="115" as="geometry" />
        </mxCell>
        <mxCell id="q62LZAC1qhZ32H_XYZBD-152" value="" style="rounded=1;whiteSpace=wrap;html=1;shadow=0;glass=0;sketch=0;fontSize=12;fontColor=#222138;strokeColor=#222138;strokeWidth=0;fillColor=#6D9AF1;" vertex="1" parent="1">
          <mxGeometry x="493" y="2548" width="118" height="43" as="geometry" />
        </mxCell>
        <mxCell id="q62LZAC1qhZ32H_XYZBD-153" value="" style="rounded=1;whiteSpace=wrap;html=1;shadow=0;glass=0;sketch=0;fontSize=12;fontColor=#222138;strokeColor=#222138;strokeWidth=0;fillColor=#6D9AF1;" vertex="1" parent="1">
          <mxGeometry x="668" y="2548" width="118" height="43" as="geometry" />
        </mxCell>
        <mxCell id="q62LZAC1qhZ32H_XYZBD-155" value="" style="rounded=1;whiteSpace=wrap;html=1;shadow=0;glass=0;sketch=0;fontSize=12;fontColor=#222138;strokeColor=#222138;strokeWidth=0;fillColor=#6D9AF1;" vertex="1" parent="1">
          <mxGeometry x="854" y="2548" width="118" height="43" as="geometry" />
        </mxCell>
        <mxCell id="q62LZAC1qhZ32H_XYZBD-158" value="" style="rounded=0;whiteSpace=wrap;html=1;shadow=0;glass=0;sketch=0;fontSize=12;fontColor=#222138;strokeColor=#222138;strokeWidth=0;fillColor=#F0F5FF;" vertex="1" parent="1">
          <mxGeometry x="1045" y="2248" width="92" height="386" as="geometry" />
        </mxCell>
        <mxCell id="q62LZAC1qhZ32H_XYZBD-159" value="" style="rounded=1;whiteSpace=wrap;html=1;shadow=0;glass=0;sketch=0;fontSize=12;fontColor=#222138;strokeColor=#222138;strokeWidth=0;fillColor=#60A5FA;" vertex="1" parent="1">
          <mxGeometry x="1064" y="2263" width="53" height="158" as="geometry" />
        </mxCell>
        <mxCell id="q62LZAC1qhZ32H_XYZBD-160" value="&lt;font color=&quot;#f4f9fc&quot;&gt;&lt;b&gt;&lt;i&gt;001765&lt;/i&gt;&lt;/b&gt;&lt;/font&gt;" style="rounded=1;whiteSpace=wrap;html=1;shadow=0;glass=0;sketch=0;fontSize=12;fontColor=#222138;strokeColor=#222138;strokeWidth=0;fillColor=#60A5FA;direction=west;horizontal=0;" vertex="1" parent="1">
          <mxGeometry x="1064" y="2456" width="53" height="158" as="geometry" />
        </mxCell>
        <mxCell id="q62LZAC1qhZ32H_XYZBD-163" value="&lt;font color=&quot;#001765&quot;&gt;GENIUS&lt;/font&gt;" style="text;html=1;strokeColor=none;fillColor=none;align=center;verticalAlign=middle;whiteSpace=wrap;rounded=0;shadow=0;glass=0;sketch=0;fontSize=17;fontColor=#F4F9FC;" vertex="1" parent="1">
          <mxGeometry x="692" y="2389" width="60" height="30" as="geometry" />
        </mxCell>
        <mxCell id="q62LZAC1qhZ32H_XYZBD-166" value="Text" style="text;html=1;align=center;verticalAlign=middle;resizable=0;points=[];autosize=1;strokeColor=none;fillColor=none;fontSize=17;fontFamily=Comic Sans MS;fontColor=#F4F9FC;" vertex="1" parent="1">
          <mxGeometry x="1254" y="2575" width="40" height="20" as="geometry" />
        </mxCell>
        <mxCell id="q62LZAC1qhZ32H_XYZBD-167" value="https://www.pptfans.cn/706571.html" style="text;html=1;strokeColor=none;fillColor=none;align=center;verticalAlign=middle;whiteSpace=wrap;rounded=0;shadow=0;glass=0;sketch=0;fontFamily=Comic Sans MS;fontSize=17;fontColor=#000000;" vertex="1" parent="1">
          <mxGeometry x="535" y="2225" width="119" height="14" as="geometry" />
        </mxCell>
        <mxCell id="q62LZAC1qhZ32H_XYZBD-169" value="" style="rounded=1;whiteSpace=wrap;html=1;shadow=0;glass=0;sketch=0;fontFamily=Comic Sans MS;fontSize=17;fontColor=#000000;strokeColor=#222138;strokeWidth=0;fillColor=#0662FF;" vertex="1" parent="1">
          <mxGeometry x="414" y="2722" width="120" height="60" as="geometry" />
        </mxCell>
        <mxCell id="q62LZAC1qhZ32H_XYZBD-170" value="" style="rounded=1;whiteSpace=wrap;html=1;shadow=0;glass=0;sketch=0;fontFamily=Comic Sans MS;fontSize=17;fontColor=#000000;strokeColor=#222138;strokeWidth=0;fillColor=#004CB3;" vertex="1" parent="1">
          <mxGeometry x="551" y="2722" width="120" height="60" as="geometry" />
        </mxCell>
        <mxCell id="q62LZAC1qhZ32H_XYZBD-171" value="" style="rounded=1;whiteSpace=wrap;html=1;shadow=0;glass=0;sketch=0;fontFamily=Comic Sans MS;fontSize=17;fontColor=#000000;strokeColor=#222138;strokeWidth=0;fillColor=#0E6B7D;" vertex="1" parent="1">
          <mxGeometry x="688" y="2722" width="120" height="60" as="geometry" />
        </mxCell>
        <mxCell id="q62LZAC1qhZ32H_XYZBD-172" value="" style="rounded=1;whiteSpace=wrap;html=1;shadow=0;glass=0;sketch=0;fontFamily=Comic Sans MS;fontSize=17;fontColor=#000000;strokeColor=#222138;strokeWidth=0;fillColor=#E9F8FB;" vertex="1" parent="1">
          <mxGeometry x="687" y="2818" width="120" height="60" as="geometry" />
        </mxCell>
        <mxCell id="q62LZAC1qhZ32H_XYZBD-173" value="" style="rounded=1;whiteSpace=wrap;html=1;shadow=0;glass=0;sketch=0;fontFamily=Comic Sans MS;fontSize=17;fontColor=#000000;strokeColor=#222138;strokeWidth=0;fillColor=#EAF6FF;" vertex="1" parent="1">
          <mxGeometry x="551" y="2818" width="120" height="60" as="geometry" />
        </mxCell>
        <mxCell id="q62LZAC1qhZ32H_XYZBD-174" value="" style="rounded=1;whiteSpace=wrap;html=1;shadow=0;glass=0;sketch=0;fontFamily=Comic Sans MS;fontSize=17;fontColor=#000000;strokeColor=#222138;strokeWidth=0;fillColor=#E7F0FF;" vertex="1" parent="1">
          <mxGeometry x="414" y="2818" width="120" height="60" as="geometry" />
        </mxCell>
        <mxCell id="q62LZAC1qhZ32H_XYZBD-175" value="" style="rounded=1;whiteSpace=wrap;html=1;shadow=0;glass=0;sketch=0;fontFamily=Comic Sans MS;fontSize=17;fontColor=#000000;strokeColor=#0E6B7D;strokeWidth=1;fillColor=#F4F9FC;" vertex="1" parent="1">
          <mxGeometry x="688" y="2905" width="120" height="60" as="geometry" />
        </mxCell>
        <mxCell id="q62LZAC1qhZ32H_XYZBD-176" value="" style="rounded=1;whiteSpace=wrap;html=1;shadow=0;glass=0;sketch=0;fontFamily=Comic Sans MS;fontSize=17;fontColor=#000000;strokeColor=#004CB3;strokeWidth=1;fillColor=#F4F9FC;" vertex="1" parent="1">
          <mxGeometry x="552" y="2905" width="120" height="60" as="geometry" />
        </mxCell>
        <mxCell id="q62LZAC1qhZ32H_XYZBD-177" value="" style="rounded=1;whiteSpace=wrap;html=1;shadow=0;glass=0;sketch=0;fontFamily=Comic Sans MS;fontSize=17;fontColor=#000000;strokeColor=#0662FF;strokeWidth=1;fillColor=#F4F9FC;" vertex="1" parent="1">
          <mxGeometry x="414" y="2905" width="120" height="60" as="geometry" />
        </mxCell>
        <mxCell id="q62LZAC1qhZ32H_XYZBD-178" value="" style="rounded=1;whiteSpace=wrap;html=1;shadow=0;glass=0;sketch=0;fontFamily=Comic Sans MS;fontSize=17;fontColor=#000000;strokeColor=#000000;strokeWidth=0;fillColor=#F4F9FC;" vertex="1" parent="1">
          <mxGeometry x="687" y="2997" width="120" height="60" as="geometry" />
        </mxCell>
        <mxCell id="q62LZAC1qhZ32H_XYZBD-179" value="" style="rounded=1;whiteSpace=wrap;html=1;shadow=0;glass=0;sketch=0;fontFamily=Comic Sans MS;fontSize=17;fontColor=#000000;strokeColor=#222138;strokeWidth=0;fillColor=#F2F2F2;" vertex="1" parent="1">
          <mxGeometry x="551" y="2997" width="120" height="60" as="geometry" />
        </mxCell>
        <mxCell id="q62LZAC1qhZ32H_XYZBD-180" value="" style="rounded=1;whiteSpace=wrap;html=1;shadow=0;glass=0;sketch=0;fontFamily=Comic Sans MS;fontSize=17;fontColor=#000000;strokeColor=#222138;strokeWidth=0;fillColor=#DADADA;" vertex="1" parent="1">
          <mxGeometry x="414" y="2997" width="120" height="60" as="geometry" />
        </mxCell>
        <mxCell id="q62LZAC1qhZ32H_XYZBD-181" value="色块样式&amp;amp;色彩区分" style="text;strokeColor=none;fillColor=none;html=1;fontSize=24;fontStyle=1;verticalAlign=middle;align=center;rounded=1;shadow=0;glass=0;sketch=0;fontFamily=Comic Sans MS;fontColor=#000000;" vertex="1" parent="1">
          <mxGeometry x="418" y="2669" width="206" height="37" as="geometry" />
        </mxCell>
      </root>
    </mxGraphModel>
  </diagram>
</mxfile>
